<svg width="734" height="736" viewBox="0 0 734 736" fill="none" xmlns="http://www.w3.org/2000/svg">
<path d="M715.938 414.398C717.529 429.978 719.684 445.619 723.859 460.79C728.039 445.613 730.188 429.972 731.779 414.398C735.544 371.88 734.92 328.806 726.674 286.813C725.873 282.945 724.991 279.078 723.859 275.216C722.732 279.084 721.845 282.951 721.043 286.813C712.792 328.806 712.167 371.88 715.938 414.398Z" fill="url(#paint0_radial_9_890)"/>
<path d="M702.875 519.982C710.894 469.759 712.718 418.748 712.975 368C712.755 317.252 710.943 266.235 702.875 216.018C694.808 266.235 693.002 317.252 692.776 368C693.033 418.748 694.857 469.759 702.875 519.982Z" fill="url(#paint1_radial_9_890)"/>
<path d="M681.88 559.518C689.917 496.031 691.717 431.909 691.98 368C691.747 304.091 689.966 239.963 681.88 176.482C673.794 239.963 672.013 304.091 671.78 368C672.043 431.909 673.843 496.031 681.88 559.518Z" fill="url(#paint2_radial_9_890)"/>
<path d="M660.89 590.226C668.94 516.456 670.703 442.136 670.99 368C670.739 293.87 668.989 219.544 660.89 145.774C652.798 219.544 651.041 293.864 650.79 368C651.078 442.13 652.841 516.456 660.89 590.226Z" fill="url(#paint3_radial_9_890)"/>
<path d="M639.895 615.447C647.95 533.24 649.701 450.537 649.995 368C649.744 285.463 647.999 202.76 639.895 120.553C631.797 202.76 630.046 285.463 629.801 368C630.089 450.537 631.839 533.24 639.901 615.447H639.895Z" fill="url(#paint4_radial_9_890)"/>
<path d="M618.905 636.703C626.967 547.39 628.711 457.619 629.005 368C628.754 278.381 627.01 188.61 618.905 99.2967C610.801 188.61 609.056 278.381 608.812 368C609.099 457.619 610.85 547.39 618.912 636.703H618.905Z" fill="url(#paint5_radial_9_890)"/>
<path d="M597.916 654.892C605.978 559.5 607.722 463.674 608.016 368C607.765 272.327 606.02 176.5 597.916 81.1077C589.812 176.5 588.067 272.327 587.822 368C588.11 463.674 589.86 559.5 597.922 654.892H597.916Z" fill="url(#paint6_radial_9_890)"/>
<path d="M576.92 670.564C584.982 569.935 586.727 468.897 587.02 368C586.769 267.103 585.031 166.065 576.92 65.4361C568.816 166.065 567.071 267.103 566.827 368C567.114 468.897 568.859 569.935 576.927 670.564H576.92Z" fill="url(#paint7_radial_9_890)"/>
<path d="M555.931 684.067C563.993 578.923 565.737 473.394 566.031 368C565.78 262.606 564.042 157.071 555.931 51.9334C547.827 157.071 546.088 262.606 545.837 368C546.131 473.394 547.869 578.923 555.937 684.067H555.931Z" fill="url(#paint8_radial_9_890)"/>
<path d="M534.935 695.7C543.003 586.67 544.741 477.274 545.035 368C544.784 258.726 543.046 149.324 534.935 40.3003C526.825 149.324 525.093 258.726 524.842 368C525.135 477.274 526.874 586.676 534.941 695.7H534.935Z" fill="url(#paint9_radial_9_890)"/>
<path d="M513.946 705.604C522.014 593.269 523.752 480.573 524.046 368C523.795 255.427 522.056 142.725 513.946 30.3963C505.835 142.725 504.103 255.427 503.852 368C504.146 480.573 505.884 593.269 513.952 705.604H513.946Z" fill="url(#paint10_radial_9_890)"/>
<path d="M492.95 713.968C501.018 598.841 502.756 483.359 503.05 368C502.799 252.641 501.061 137.159 492.95 22.032C484.84 137.159 483.108 252.641 482.857 368C483.15 483.359 484.889 598.841 492.957 713.968H492.95Z" fill="url(#paint11_radial_9_890)"/>
<path d="M471.961 720.872C480.029 603.442 481.767 485.663 482.061 368C481.81 250.337 480.072 132.558 471.961 15.1279C463.85 132.558 462.118 250.337 461.867 368C462.161 485.663 463.899 603.442 471.967 720.872H471.961Z" fill="url(#paint12_radial_9_890)"/>
<path d="M450.971 726.414C459.039 607.132 460.778 487.508 461.071 368C460.82 248.492 459.082 128.868 450.972 9.5863C442.861 128.868 441.129 248.492 440.878 368C441.172 487.508 442.91 607.132 450.978 726.414H450.971Z" fill="url(#paint13_radial_9_890)"/>
<path d="M429.976 730.654C438.044 609.955 439.782 488.919 440.076 368C439.825 247.081 438.087 126.039 429.976 5.34609C421.865 126.039 420.133 247.081 419.882 368C420.176 488.919 421.914 609.955 429.982 730.654H429.976Z" fill="url(#paint14_radial_9_890)"/>
<path d="M408.987 733.635C417.054 611.94 418.793 489.915 419.086 368C418.835 246.085 417.097 124.054 408.987 2.3645C400.876 124.054 399.144 246.085 398.893 368C399.187 489.915 400.925 611.94 408.993 733.635H408.987Z" fill="url(#paint15_radial_9_890)"/>
<path d="M387.991 735.414C396.059 613.126 397.797 490.508 398.091 368C397.84 245.492 396.101 122.868 387.991 0.586543C379.88 122.868 378.148 245.492 377.897 368C378.191 490.508 379.929 613.126 387.997 735.414H387.991Z" fill="url(#paint16_radial_9_890)"/>
<path d="M12.954 286.807C12.1521 282.939 11.2706 279.072 10.1382 275.21C9.0119 279.078 8.12434 282.945 7.32247 286.807C-0.928845 328.799 -1.55318 371.874 2.21745 414.392C3.80895 429.972 5.96355 445.613 10.1382 460.784C14.3189 445.607 16.4675 429.966 18.059 414.392C21.8235 371.874 21.1992 328.799 12.954 286.807Z" fill="url(#paint17_radial_9_890)"/>
<path d="M31.1276 216.018C23.0599 266.235 21.2541 317.252 21.0276 368C21.2847 418.748 23.1088 469.759 31.1275 519.982C39.1463 469.759 40.9704 418.748 41.2275 368C41.0071 317.252 39.1952 266.235 31.1276 216.018Z" fill="url(#paint18_radial_9_890)"/>
<path d="M52.1232 176.482C44.0372 239.963 42.2559 304.091 42.0233 368C42.2865 431.909 44.0861 496.031 52.1232 559.518C60.1603 496.031 61.9599 431.909 62.2231 368C61.9905 304.091 60.2093 239.963 52.1232 176.482Z" fill="url(#paint19_radial_9_890)"/>
<path d="M73.1126 145.774C65.0204 219.544 63.2637 293.864 63.0127 368C63.3004 442.13 65.0633 516.456 73.1126 590.226C81.1619 516.456 82.9248 442.136 83.2125 368C82.9615 293.87 81.2109 219.544 73.1126 145.774Z" fill="url(#paint20_radial_9_890)"/>
<path d="M94.1082 120.553C86.0099 202.76 84.2593 285.463 84.0083 368C84.296 450.537 86.0466 533.24 94.1082 615.447C102.164 533.24 103.914 450.537 104.208 368C103.957 285.463 102.213 202.76 94.1082 120.553Z" fill="url(#paint21_radial_9_890)"/>
<path d="M115.098 99.2966C106.993 188.61 105.249 278.381 105.004 368C105.292 457.619 107.042 547.39 115.104 636.703C123.165 547.39 124.91 457.619 125.204 368C124.953 278.381 123.208 188.61 115.104 99.2966H115.098Z" fill="url(#paint22_radial_9_890)"/>
<path d="M136.087 81.1077C127.983 176.5 126.238 272.326 125.993 368C126.281 463.674 128.032 559.5 136.093 654.892C144.155 559.5 145.899 463.674 146.193 368C145.942 272.326 144.198 176.5 136.093 81.1077H136.087Z" fill="url(#paint23_radial_9_890)"/>
<path d="M157.083 65.4361C148.978 166.065 147.24 267.103 146.989 368C147.277 468.897 149.021 569.935 157.089 670.564C165.15 569.935 166.895 468.897 167.189 368C166.938 267.103 165.199 166.065 157.089 65.4361H157.083Z" fill="url(#paint24_radial_9_890)"/>
<path d="M178.072 51.9334C169.968 157.071 168.229 262.606 167.978 368C168.272 473.394 170.011 578.923 178.078 684.067C186.14 578.923 187.884 473.394 188.178 368C187.927 262.606 186.189 157.071 178.078 51.9334H178.072Z" fill="url(#paint25_radial_9_890)"/>
<path d="M199.068 40.3003C190.957 149.324 189.225 258.726 188.974 368C189.268 477.274 191.006 586.676 199.074 695.7C207.141 586.67 208.88 477.274 209.174 368C208.923 258.726 207.184 149.324 199.074 40.3003H199.068Z" fill="url(#paint26_radial_9_890)"/>
<path d="M220.057 30.3963C211.947 142.725 210.214 255.427 209.963 368C210.257 480.573 211.996 593.269 220.063 705.604C228.131 593.269 229.869 480.573 230.163 368C229.912 255.427 228.174 142.725 220.063 30.3963H220.057Z" fill="url(#paint27_radial_9_890)"/>
<path d="M241.053 22.032C232.942 137.159 231.21 252.641 230.959 368C231.253 483.359 232.991 598.841 241.059 713.968C249.126 598.841 250.865 483.359 251.159 368C250.908 252.641 249.169 137.159 241.059 22.032H241.053Z" fill="url(#paint28_radial_9_890)"/>
<path d="M262.042 15.1279C253.932 132.558 252.199 250.337 251.948 368C252.242 485.663 253.98 603.442 262.048 720.872C270.116 603.442 271.854 485.663 272.148 368C271.897 250.337 270.159 132.558 262.048 15.1279H262.042Z" fill="url(#paint29_radial_9_890)"/>
<path d="M283.032 9.58629C274.921 128.868 273.189 248.492 272.938 368C273.232 487.508 274.97 607.132 283.038 726.414C291.105 607.132 292.844 487.508 293.138 368C292.887 248.492 291.148 128.868 283.038 9.58629H283.032Z" fill="url(#paint30_radial_9_890)"/>
<path d="M304.027 5.34608C295.917 126.039 294.184 247.081 293.933 368C294.227 488.919 295.965 609.955 304.033 730.654C312.101 609.955 313.839 488.919 314.133 368C313.882 247.081 312.144 126.039 304.033 5.34608H304.027Z" fill="url(#paint31_radial_9_890)"/>
<path d="M325.017 2.36449C316.906 124.054 315.174 246.085 314.923 368C315.217 489.915 316.955 611.94 325.023 733.635C333.09 611.94 334.829 489.915 335.123 368C334.872 246.085 333.133 124.054 325.023 2.36449H325.017Z" fill="url(#paint32_radial_9_890)"/>
<path d="M346.012 0.586541C337.902 122.868 336.169 245.492 335.918 368C336.212 490.508 337.951 613.126 346.018 735.414C354.086 613.126 355.824 490.508 356.118 368C355.867 245.492 354.129 122.868 346.018 0.586541L346.012 0.586541Z" fill="url(#paint33_radial_9_890)"/>
<path d="M367.001 736C375.069 613.517 376.808 490.703 377.101 368C376.85 245.297 375.112 122.477 367.002 0C358.891 122.477 357.159 245.297 356.908 368C357.202 490.703 358.94 613.517 367.008 736H367.001Z" fill="url(#paint34_radial_9_890)"/>
<defs>
<radialGradient id="paint0_radial_9_890" cx="0" cy="0" r="1" gradientUnits="userSpaceOnUse" gradientTransform="translate(175.001 648.5) rotate(-52.9255) scale(728.205 704.065)">
<stop stop-color="#FFEEE8"/>
<stop offset="0.140211" stop-color="#FF9873"/>
<stop offset="0.552354" stop-color="#F5330E"/>
<stop offset="1" stop-color="#F5330E" stop-opacity="0"/>
</radialGradient>
<radialGradient id="paint1_radial_9_890" cx="0" cy="0" r="1" gradientUnits="userSpaceOnUse" gradientTransform="translate(175.001 648.5) rotate(-52.9255) scale(728.205 704.065)">
<stop stop-color="#FFEEE8"/>
<stop offset="0.140211" stop-color="#FF9873"/>
<stop offset="0.552354" stop-color="#F5330E"/>
<stop offset="1" stop-color="#F5330E" stop-opacity="0"/>
</radialGradient>
<radialGradient id="paint2_radial_9_890" cx="0" cy="0" r="1" gradientUnits="userSpaceOnUse" gradientTransform="translate(175.001 648.5) rotate(-52.9255) scale(728.205 704.065)">
<stop stop-color="#FFEEE8"/>
<stop offset="0.140211" stop-color="#FF9873"/>
<stop offset="0.552354" stop-color="#F5330E"/>
<stop offset="1" stop-color="#F5330E" stop-opacity="0"/>
</radialGradient>
<radialGradient id="paint3_radial_9_890" cx="0" cy="0" r="1" gradientUnits="userSpaceOnUse" gradientTransform="translate(175.001 648.5) rotate(-52.9255) scale(728.205 704.065)">
<stop stop-color="#FFEEE8"/>
<stop offset="0.140211" stop-color="#FF9873"/>
<stop offset="0.552354" stop-color="#F5330E"/>
<stop offset="1" stop-color="#F5330E" stop-opacity="0"/>
</radialGradient>
<radialGradient id="paint4_radial_9_890" cx="0" cy="0" r="1" gradientUnits="userSpaceOnUse" gradientTransform="translate(175.001 648.5) rotate(-52.9255) scale(728.205 704.065)">
<stop stop-color="#FFEEE8"/>
<stop offset="0.140211" stop-color="#FF9873"/>
<stop offset="0.552354" stop-color="#F5330E"/>
<stop offset="1" stop-color="#F5330E" stop-opacity="0"/>
</radialGradient>
<radialGradient id="paint5_radial_9_890" cx="0" cy="0" r="1" gradientUnits="userSpaceOnUse" gradientTransform="translate(175.001 648.5) rotate(-52.9255) scale(728.205 704.065)">
<stop stop-color="#FFEEE8"/>
<stop offset="0.140211" stop-color="#FF9873"/>
<stop offset="0.552354" stop-color="#F5330E"/>
<stop offset="1" stop-color="#F5330E" stop-opacity="0"/>
</radialGradient>
<radialGradient id="paint6_radial_9_890" cx="0" cy="0" r="1" gradientUnits="userSpaceOnUse" gradientTransform="translate(175.001 648.5) rotate(-52.9255) scale(728.205 704.065)">
<stop stop-color="#FFEEE8"/>
<stop offset="0.140211" stop-color="#FF9873"/>
<stop offset="0.552354" stop-color="#F5330E"/>
<stop offset="1" stop-color="#F5330E" stop-opacity="0"/>
</radialGradient>
<radialGradient id="paint7_radial_9_890" cx="0" cy="0" r="1" gradientUnits="userSpaceOnUse" gradientTransform="translate(175.001 648.5) rotate(-52.9255) scale(728.205 704.065)">
<stop stop-color="#FFEEE8"/>
<stop offset="0.140211" stop-color="#FF9873"/>
<stop offset="0.552354" stop-color="#F5330E"/>
<stop offset="1" stop-color="#F5330E" stop-opacity="0"/>
</radialGradient>
<radialGradient id="paint8_radial_9_890" cx="0" cy="0" r="1" gradientUnits="userSpaceOnUse" gradientTransform="translate(175.001 648.5) rotate(-52.9255) scale(728.205 704.065)">
<stop stop-color="#FFEEE8"/>
<stop offset="0.140211" stop-color="#FF9873"/>
<stop offset="0.552354" stop-color="#F5330E"/>
<stop offset="1" stop-color="#F5330E" stop-opacity="0"/>
</radialGradient>
<radialGradient id="paint9_radial_9_890" cx="0" cy="0" r="1" gradientUnits="userSpaceOnUse" gradientTransform="translate(175.001 648.5) rotate(-52.9255) scale(728.205 704.065)">
<stop stop-color="#FFEEE8"/>
<stop offset="0.140211" stop-color="#FF9873"/>
<stop offset="0.552354" stop-color="#F5330E"/>
<stop offset="1" stop-color="#F5330E" stop-opacity="0"/>
</radialGradient>
<radialGradient id="paint10_radial_9_890" cx="0" cy="0" r="1" gradientUnits="userSpaceOnUse" gradientTransform="translate(175.001 648.5) rotate(-52.9255) scale(728.205 704.065)">
<stop stop-color="#FFEEE8"/>
<stop offset="0.140211" stop-color="#FF9873"/>
<stop offset="0.552354" stop-color="#F5330E"/>
<stop offset="1" stop-color="#F5330E" stop-opacity="0"/>
</radialGradient>
<radialGradient id="paint11_radial_9_890" cx="0" cy="0" r="1" gradientUnits="userSpaceOnUse" gradientTransform="translate(175.001 648.5) rotate(-52.9255) scale(728.205 704.065)">
<stop stop-color="#FFEEE8"/>
<stop offset="0.140211" stop-color="#FF9873"/>
<stop offset="0.552354" stop-color="#F5330E"/>
<stop offset="1" stop-color="#F5330E" stop-opacity="0"/>
</radialGradient>
<radialGradient id="paint12_radial_9_890" cx="0" cy="0" r="1" gradientUnits="userSpaceOnUse" gradientTransform="translate(175.001 648.5) rotate(-52.9255) scale(728.205 704.065)">
<stop stop-color="#FFEEE8"/>
<stop offset="0.140211" stop-color="#FF9873"/>
<stop offset="0.552354" stop-color="#F5330E"/>
<stop offset="1" stop-color="#F5330E" stop-opacity="0"/>
</radialGradient>
<radialGradient id="paint13_radial_9_890" cx="0" cy="0" r="1" gradientUnits="userSpaceOnUse" gradientTransform="translate(175.001 648.5) rotate(-52.9255) scale(728.205 704.065)">
<stop stop-color="#FFEEE8"/>
<stop offset="0.140211" stop-color="#FF9873"/>
<stop offset="0.552354" stop-color="#F5330E"/>
<stop offset="1" stop-color="#F5330E" stop-opacity="0"/>
</radialGradient>
<radialGradient id="paint14_radial_9_890" cx="0" cy="0" r="1" gradientUnits="userSpaceOnUse" gradientTransform="translate(175.001 648.5) rotate(-52.9255) scale(728.205 704.065)">
<stop stop-color="#FFEEE8"/>
<stop offset="0.140211" stop-color="#FF9873"/>
<stop offset="0.552354" stop-color="#F5330E"/>
<stop offset="1" stop-color="#F5330E" stop-opacity="0"/>
</radialGradient>
<radialGradient id="paint15_radial_9_890" cx="0" cy="0" r="1" gradientUnits="userSpaceOnUse" gradientTransform="translate(175.001 648.5) rotate(-52.9255) scale(728.205 704.065)">
<stop stop-color="#FFEEE8"/>
<stop offset="0.140211" stop-color="#FF9873"/>
<stop offset="0.552354" stop-color="#F5330E"/>
<stop offset="1" stop-color="#F5330E" stop-opacity="0"/>
</radialGradient>
<radialGradient id="paint16_radial_9_890" cx="0" cy="0" r="1" gradientUnits="userSpaceOnUse" gradientTransform="translate(175.001 648.5) rotate(-52.9255) scale(728.205 704.065)">
<stop stop-color="#FFEEE8"/>
<stop offset="0.140211" stop-color="#FF9873"/>
<stop offset="0.552354" stop-color="#F5330E"/>
<stop offset="1" stop-color="#F5330E" stop-opacity="0"/>
</radialGradient>
<radialGradient id="paint17_radial_9_890" cx="0" cy="0" r="1" gradientUnits="userSpaceOnUse" gradientTransform="translate(175.001 648.5) rotate(-52.9255) scale(728.205 704.065)">
<stop stop-color="#FFEEE8"/>
<stop offset="0.140211" stop-color="#FF9873"/>
<stop offset="0.552354" stop-color="#F5330E"/>
<stop offset="1" stop-color="#F5330E" stop-opacity="0"/>
</radialGradient>
<radialGradient id="paint18_radial_9_890" cx="0" cy="0" r="1" gradientUnits="userSpaceOnUse" gradientTransform="translate(175.001 648.5) rotate(-52.9255) scale(728.205 704.065)">
<stop stop-color="#FFEEE8"/>
<stop offset="0.140211" stop-color="#FF9873"/>
<stop offset="0.552354" stop-color="#F5330E"/>
<stop offset="1" stop-color="#F5330E" stop-opacity="0"/>
</radialGradient>
<radialGradient id="paint19_radial_9_890" cx="0" cy="0" r="1" gradientUnits="userSpaceOnUse" gradientTransform="translate(175.001 648.5) rotate(-52.9255) scale(728.205 704.065)">
<stop stop-color="#FFEEE8"/>
<stop offset="0.140211" stop-color="#FF9873"/>
<stop offset="0.552354" stop-color="#F5330E"/>
<stop offset="1" stop-color="#F5330E" stop-opacity="0"/>
</radialGradient>
<radialGradient id="paint20_radial_9_890" cx="0" cy="0" r="1" gradientUnits="userSpaceOnUse" gradientTransform="translate(175.001 648.5) rotate(-52.9255) scale(728.205 704.065)">
<stop stop-color="#FFEEE8"/>
<stop offset="0.140211" stop-color="#FF9873"/>
<stop offset="0.552354" stop-color="#F5330E"/>
<stop offset="1" stop-color="#F5330E" stop-opacity="0"/>
</radialGradient>
<radialGradient id="paint21_radial_9_890" cx="0" cy="0" r="1" gradientUnits="userSpaceOnUse" gradientTransform="translate(175.001 648.5) rotate(-52.9255) scale(728.205 704.065)">
<stop stop-color="#FFEEE8"/>
<stop offset="0.140211" stop-color="#FF9873"/>
<stop offset="0.552354" stop-color="#F5330E"/>
<stop offset="1" stop-color="#F5330E" stop-opacity="0"/>
</radialGradient>
<radialGradient id="paint22_radial_9_890" cx="0" cy="0" r="1" gradientUnits="userSpaceOnUse" gradientTransform="translate(175.001 648.5) rotate(-52.9255) scale(728.205 704.065)">
<stop stop-color="#FFEEE8"/>
<stop offset="0.140211" stop-color="#FF9873"/>
<stop offset="0.552354" stop-color="#F5330E"/>
<stop offset="1" stop-color="#F5330E" stop-opacity="0"/>
</radialGradient>
<radialGradient id="paint23_radial_9_890" cx="0" cy="0" r="1" gradientUnits="userSpaceOnUse" gradientTransform="translate(175.001 648.5) rotate(-52.9255) scale(728.205 704.065)">
<stop stop-color="#FFEEE8"/>
<stop offset="0.140211" stop-color="#FF9873"/>
<stop offset="0.552354" stop-color="#F5330E"/>
<stop offset="1" stop-color="#F5330E" stop-opacity="0"/>
</radialGradient>
<radialGradient id="paint24_radial_9_890" cx="0" cy="0" r="1" gradientUnits="userSpaceOnUse" gradientTransform="translate(175.001 648.5) rotate(-52.9255) scale(728.205 704.065)">
<stop stop-color="#FFEEE8"/>
<stop offset="0.140211" stop-color="#FF9873"/>
<stop offset="0.552354" stop-color="#F5330E"/>
<stop offset="1" stop-color="#F5330E" stop-opacity="0"/>
</radialGradient>
<radialGradient id="paint25_radial_9_890" cx="0" cy="0" r="1" gradientUnits="userSpaceOnUse" gradientTransform="translate(175.001 648.5) rotate(-52.9255) scale(728.205 704.065)">
<stop stop-color="#FFEEE8"/>
<stop offset="0.140211" stop-color="#FF9873"/>
<stop offset="0.552354" stop-color="#F5330E"/>
<stop offset="1" stop-color="#F5330E" stop-opacity="0"/>
</radialGradient>
<radialGradient id="paint26_radial_9_890" cx="0" cy="0" r="1" gradientUnits="userSpaceOnUse" gradientTransform="translate(175.001 648.5) rotate(-52.9255) scale(728.205 704.065)">
<stop stop-color="#FFEEE8"/>
<stop offset="0.140211" stop-color="#FF9873"/>
<stop offset="0.552354" stop-color="#F5330E"/>
<stop offset="1" stop-color="#F5330E" stop-opacity="0"/>
</radialGradient>
<radialGradient id="paint27_radial_9_890" cx="0" cy="0" r="1" gradientUnits="userSpaceOnUse" gradientTransform="translate(175.001 648.5) rotate(-52.9255) scale(728.205 704.065)">
<stop stop-color="#FFEEE8"/>
<stop offset="0.140211" stop-color="#FF9873"/>
<stop offset="0.552354" stop-color="#F5330E"/>
<stop offset="1" stop-color="#F5330E" stop-opacity="0"/>
</radialGradient>
<radialGradient id="paint28_radial_9_890" cx="0" cy="0" r="1" gradientUnits="userSpaceOnUse" gradientTransform="translate(175.001 648.5) rotate(-52.9255) scale(728.205 704.065)">
<stop stop-color="#FFEEE8"/>
<stop offset="0.140211" stop-color="#FF9873"/>
<stop offset="0.552354" stop-color="#F5330E"/>
<stop offset="1" stop-color="#F5330E" stop-opacity="0"/>
</radialGradient>
<radialGradient id="paint29_radial_9_890" cx="0" cy="0" r="1" gradientUnits="userSpaceOnUse" gradientTransform="translate(175.001 648.5) rotate(-52.9255) scale(728.205 704.065)">
<stop stop-color="#FFEEE8"/>
<stop offset="0.140211" stop-color="#FF9873"/>
<stop offset="0.552354" stop-color="#F5330E"/>
<stop offset="1" stop-color="#F5330E" stop-opacity="0"/>
</radialGradient>
<radialGradient id="paint30_radial_9_890" cx="0" cy="0" r="1" gradientUnits="userSpaceOnUse" gradientTransform="translate(175.001 648.5) rotate(-52.9255) scale(728.205 704.065)">
<stop stop-color="#FFEEE8"/>
<stop offset="0.140211" stop-color="#FF9873"/>
<stop offset="0.552354" stop-color="#F5330E"/>
<stop offset="1" stop-color="#F5330E" stop-opacity="0"/>
</radialGradient>
<radialGradient id="paint31_radial_9_890" cx="0" cy="0" r="1" gradientUnits="userSpaceOnUse" gradientTransform="translate(175.001 648.5) rotate(-52.9255) scale(728.205 704.065)">
<stop stop-color="#FFEEE8"/>
<stop offset="0.140211" stop-color="#FF9873"/>
<stop offset="0.552354" stop-color="#F5330E"/>
<stop offset="1" stop-color="#F5330E" stop-opacity="0"/>
</radialGradient>
<radialGradient id="paint32_radial_9_890" cx="0" cy="0" r="1" gradientUnits="userSpaceOnUse" gradientTransform="translate(175.001 648.5) rotate(-52.9255) scale(728.205 704.065)">
<stop stop-color="#FFEEE8"/>
<stop offset="0.140211" stop-color="#FF9873"/>
<stop offset="0.552354" stop-color="#F5330E"/>
<stop offset="1" stop-color="#F5330E" stop-opacity="0"/>
</radialGradient>
<radialGradient id="paint33_radial_9_890" cx="0" cy="0" r="1" gradientUnits="userSpaceOnUse" gradientTransform="translate(175.001 648.5) rotate(-52.9255) scale(728.205 704.065)">
<stop stop-color="#FFEEE8"/>
<stop offset="0.140211" stop-color="#FF9873"/>
<stop offset="0.552354" stop-color="#F5330E"/>
<stop offset="1" stop-color="#F5330E" stop-opacity="0"/>
</radialGradient>
<radialGradient id="paint34_radial_9_890" cx="0" cy="0" r="1" gradientUnits="userSpaceOnUse" gradientTransform="translate(175.001 648.5) rotate(-52.9255) scale(728.205 704.065)">
<stop stop-color="#FFEEE8"/>
<stop offset="0.140211" stop-color="#FF9873"/>
<stop offset="0.552354" stop-color="#F5330E"/>
<stop offset="1" stop-color="#F5330E" stop-opacity="0"/>
</radialGradient>
</defs>
</svg>
